<svg xmlns="http://www.w3.org/2000/svg" width="32" height="32" viewBox="0 0 32 28"><path style="stroke:none;fill-rule:nonzero;fill:#000;fill-opacity:1" d="M12.445 14.398c.012-1.64.801-3.175 2.133-4.16L27.727.523a2.7 2.7 0 0 1 3.421.184 2.596 2.596 0 0 1 .418 3.344l-8.984 13.672a5.328 5.328 0 0 1-3.73 2.351Zm5.332 7.477c0 3.387-2.78 6.125-6.222 6.125h-8c-.98 0-1.778-.781-1.778-1.75s.797-1.75 1.778-1.75h.27c.976 0 1.64-1.035 1.542-1.992a5.622 5.622 0 0 1-.035-.633c0-3.305 2.664-6 5.984-6.121l6.45 5.71c.007.087.011.274.011.411Zm0 0" id="surface1"/></svg>